<mxfile host="app.diagrams.net" modified="2021-08-05T01:05:29.239Z" agent="5.0 (Windows NT 10.0; Win64; x64) AppleWebKit/537.36 (KHTML, like Gecko) Chrome/92.0.4515.107 Safari/537.36" etag="16uc9HEWJsGx6WWVoFFD" version="14.9.4" type="github">
  <diagram id="C5RBs43oDa-KdzZeNtuy" name="Page-1">
    <mxGraphModel dx="1747" dy="1720" grid="1" gridSize="10" guides="1" tooltips="1" connect="1" arrows="1" fold="1" page="1" pageScale="1" pageWidth="827" pageHeight="1169" math="0" shadow="0">
      <root>
        <mxCell id="WIyWlLk6GJQsqaUBKTNV-0" />
        <mxCell id="WIyWlLk6GJQsqaUBKTNV-1" parent="WIyWlLk6GJQsqaUBKTNV-0" />
        <mxCell id="-YW3XqVoo-FFC-2cghZG-14" value="" style="whiteSpace=wrap;html=1;aspect=fixed;fillColor=#ffe6cc;strokeColor=#d79b00;" vertex="1" parent="WIyWlLk6GJQsqaUBKTNV-1">
          <mxGeometry x="-270" y="-160" width="880" height="880" as="geometry" />
        </mxCell>
        <mxCell id="-YW3XqVoo-FFC-2cghZG-9" style="edgeStyle=orthogonalEdgeStyle;rounded=0;orthogonalLoop=1;jettySize=auto;html=1;" edge="1" parent="WIyWlLk6GJQsqaUBKTNV-1" source="WIyWlLk6GJQsqaUBKTNV-7" target="WIyWlLk6GJQsqaUBKTNV-12">
          <mxGeometry relative="1" as="geometry" />
        </mxCell>
        <mxCell id="WIyWlLk6GJQsqaUBKTNV-7" value="Controller" style="rounded=1;whiteSpace=wrap;html=1;fontSize=12;glass=0;strokeWidth=1;shadow=0;sketch=1;" parent="WIyWlLk6GJQsqaUBKTNV-1" vertex="1">
          <mxGeometry x="40" y="-60" width="120" height="40" as="geometry" />
        </mxCell>
        <mxCell id="-YW3XqVoo-FFC-2cghZG-10" style="edgeStyle=orthogonalEdgeStyle;rounded=0;orthogonalLoop=1;jettySize=auto;html=1;entryX=0.5;entryY=0;entryDx=0;entryDy=0;" edge="1" parent="WIyWlLk6GJQsqaUBKTNV-1" source="WIyWlLk6GJQsqaUBKTNV-12" target="-YW3XqVoo-FFC-2cghZG-6">
          <mxGeometry relative="1" as="geometry" />
        </mxCell>
        <mxCell id="WIyWlLk6GJQsqaUBKTNV-12" value="Interactor" style="rounded=1;whiteSpace=wrap;html=1;fontSize=12;glass=0;strokeWidth=1;shadow=0;" parent="WIyWlLk6GJQsqaUBKTNV-1" vertex="1">
          <mxGeometry x="40" y="30" width="120" height="40" as="geometry" />
        </mxCell>
        <mxCell id="-YW3XqVoo-FFC-2cghZG-4" value="&lt;b&gt;Request&lt;/b&gt;" style="edgeStyle=orthogonalEdgeStyle;rounded=0;orthogonalLoop=1;jettySize=auto;html=1;exitX=1;exitY=0.5;exitDx=0;exitDy=0;entryX=0;entryY=0.5;entryDx=0;entryDy=0;labelBackgroundColor=none;" edge="1" parent="WIyWlLk6GJQsqaUBKTNV-1" source="-YW3XqVoo-FFC-2cghZG-0" target="WIyWlLk6GJQsqaUBKTNV-7">
          <mxGeometry x="-0.0769" y="10" relative="1" as="geometry">
            <mxPoint x="30" y="-40" as="targetPoint" />
            <mxPoint as="offset" />
          </mxGeometry>
        </mxCell>
        <mxCell id="-YW3XqVoo-FFC-2cghZG-0" value="&lt;b&gt;INÍCIO&lt;/b&gt;" style="ellipse;whiteSpace=wrap;html=1;aspect=fixed;fillColor=#fff2cc;strokeColor=#d6b656;" vertex="1" parent="WIyWlLk6GJQsqaUBKTNV-1">
          <mxGeometry x="-170" y="-80" width="80" height="80" as="geometry" />
        </mxCell>
        <mxCell id="-YW3XqVoo-FFC-2cghZG-1" value="&lt;b&gt;FIM&lt;/b&gt;" style="ellipse;whiteSpace=wrap;html=1;aspect=fixed;fillColor=#fff2cc;strokeColor=#d6b656;" vertex="1" parent="WIyWlLk6GJQsqaUBKTNV-1">
          <mxGeometry x="450" y="360" width="80" height="80" as="geometry" />
        </mxCell>
        <mxCell id="-YW3XqVoo-FFC-2cghZG-15" style="edgeStyle=orthogonalEdgeStyle;rounded=0;orthogonalLoop=1;jettySize=auto;html=1;" edge="1" parent="WIyWlLk6GJQsqaUBKTNV-1" source="-YW3XqVoo-FFC-2cghZG-2" target="-YW3XqVoo-FFC-2cghZG-1">
          <mxGeometry relative="1" as="geometry" />
        </mxCell>
        <mxCell id="-YW3XqVoo-FFC-2cghZG-2" value="&lt;b&gt;ScyllaDb&lt;/b&gt;" style="shape=cylinder3;whiteSpace=wrap;html=1;boundedLbl=1;backgroundOutline=1;size=15;fillColor=#dae8fc;strokeColor=#6c8ebf;" vertex="1" parent="WIyWlLk6GJQsqaUBKTNV-1">
          <mxGeometry x="460" y="190" width="60" height="80" as="geometry" />
        </mxCell>
        <mxCell id="-YW3XqVoo-FFC-2cghZG-11" style="edgeStyle=orthogonalEdgeStyle;rounded=0;orthogonalLoop=1;jettySize=auto;html=1;entryX=0.5;entryY=0;entryDx=0;entryDy=0;" edge="1" parent="WIyWlLk6GJQsqaUBKTNV-1" source="-YW3XqVoo-FFC-2cghZG-6" target="-YW3XqVoo-FFC-2cghZG-7">
          <mxGeometry relative="1" as="geometry" />
        </mxCell>
        <mxCell id="-YW3XqVoo-FFC-2cghZG-6" value="DataProvider" style="rounded=1;whiteSpace=wrap;html=1;fontSize=12;glass=0;strokeWidth=1;shadow=0;" vertex="1" parent="WIyWlLk6GJQsqaUBKTNV-1">
          <mxGeometry x="40" y="110" width="120" height="40" as="geometry" />
        </mxCell>
        <mxCell id="-YW3XqVoo-FFC-2cghZG-12" style="edgeStyle=orthogonalEdgeStyle;rounded=0;orthogonalLoop=1;jettySize=auto;html=1;" edge="1" parent="WIyWlLk6GJQsqaUBKTNV-1" source="-YW3XqVoo-FFC-2cghZG-7" target="-YW3XqVoo-FFC-2cghZG-8">
          <mxGeometry relative="1" as="geometry" />
        </mxCell>
        <mxCell id="-YW3XqVoo-FFC-2cghZG-7" value="ScyllaProvider" style="rounded=1;whiteSpace=wrap;html=1;fontSize=12;glass=0;strokeWidth=1;shadow=0;" vertex="1" parent="WIyWlLk6GJQsqaUBKTNV-1">
          <mxGeometry x="40" y="210" width="120" height="40" as="geometry" />
        </mxCell>
        <mxCell id="-YW3XqVoo-FFC-2cghZG-13" style="edgeStyle=orthogonalEdgeStyle;rounded=0;orthogonalLoop=1;jettySize=auto;html=1;dashed=1;" edge="1" parent="WIyWlLk6GJQsqaUBKTNV-1" source="-YW3XqVoo-FFC-2cghZG-8" target="-YW3XqVoo-FFC-2cghZG-2">
          <mxGeometry relative="1" as="geometry" />
        </mxCell>
        <mxCell id="-YW3XqVoo-FFC-2cghZG-8" value="&lt;b&gt;Repository&lt;/b&gt;" style="rounded=1;whiteSpace=wrap;html=1;fontSize=12;glass=0;strokeWidth=1;shadow=0;" vertex="1" parent="WIyWlLk6GJQsqaUBKTNV-1">
          <mxGeometry x="240" y="210" width="120" height="40" as="geometry" />
        </mxCell>
      </root>
    </mxGraphModel>
  </diagram>
</mxfile>
